<svg xmlns="http://www.w3.org/2000/svg" xmlns:xlink="http://www.w3.org/1999/xlink" width="536" height="248" viewBox="0 0 536 248">
  <defs>
    <clipPath id="clip-path">
      <rect id="Rectangle_7" data-name="Rectangle 7" width="118" height="102.421" fill="#de413a"/>
    </clipPath>
  </defs>
  <g id="Group_72" data-name="Group 72" transform="translate(-1243 -1527)">
    <g id="Rectangle_30" data-name="Rectangle 30" transform="translate(1243 1527)" fill="#edf4fd" stroke="#707070" stroke-width="1">
      <rect width="536" height="248" stroke="none"/>
      <rect x="0.5" y="0.5" width="535" height="247" fill="none"/>
    </g>
    <g id="Group_15" data-name="Group 15" transform="translate(1452 1600)">
      <g id="Group_14" data-name="Group 14" transform="translate(0 0)" clip-path="url(#clip-path)">
        <path id="Path_1431" data-name="Path 1431" d="M106.667,32.45H11.321a11.323,11.323,0,0,0,0,22.647h95.346a11.323,11.323,0,0,0,0-22.647M3.574,43.773a7.757,7.757,0,0,1,7.746-7.749h9.986L7.088,50.246a7.738,7.738,0,0,1-3.513-6.473m7.746,7.746c-.14,0-.27-.034-.411-.042L26.364,36.024H40.379l-15.5,15.5Zm18.62,0,15.5-15.5H59.451l-15.5,15.5Zm19.072,0,15.493-15.5H78.521L63.028,51.52Zm57.654,0H68.085l15.49-15.5h23.092a7.748,7.748,0,0,1,0,15.5" transform="translate(0 47.324)" fill="#de413a"/>
        <path id="Path_1432" data-name="Path 1432" d="M3.442,40.775h2.95a28.574,28.574,0,0,0,.853,3.184L4.691,45.433a3.441,3.441,0,0,0-1.261,4.7l2.478,4.295a3.445,3.445,0,0,0,4.7,1.259l2.567-1.48A29.269,29.269,0,0,0,15.5,56.535L14.02,59.1a3.439,3.439,0,0,0,1.259,4.7l4.3,2.483a3.448,3.448,0,0,0,4.7-1.259l1.48-2.559a28.86,28.86,0,0,0,3.176.856v2.953a3.443,3.443,0,0,0,3.442,3.439h4.961a3.443,3.443,0,0,0,3.439-3.439V63.318a29.091,29.091,0,0,0,3.181-.856l1.477,2.559a3.448,3.448,0,0,0,4.7,1.259L54.426,63.8a3.439,3.439,0,0,0,1.259-4.7L54.2,56.535a30.116,30.116,0,0,0,2.328-2.326L59.1,55.69a3.439,3.439,0,0,0,4.7-1.259l2.478-4.3a3.431,3.431,0,0,0-1.259-4.7l-2.559-1.477a28.314,28.314,0,0,0,.858-3.184h2.95a3.443,3.443,0,0,0,3.442-3.437V32.374a3.443,3.443,0,0,0-3.442-3.439h-2.95a28.415,28.415,0,0,0-.858-3.181l2.559-1.477a3.434,3.434,0,0,0,1.259-4.7l-2.478-4.3a3.447,3.447,0,0,0-4.7-1.259L56.533,15.5A29.269,29.269,0,0,0,54.2,13.177l1.48-2.564a3.434,3.434,0,0,0-1.259-4.7L50.131,3.429a3.452,3.452,0,0,0-4.7,1.261L43.953,7.25a29.089,29.089,0,0,0-3.181-.856V3.444A3.447,3.447,0,0,0,37.333,0H32.372A3.448,3.448,0,0,0,28.93,3.444v2.95a28.859,28.859,0,0,0-3.176.856L24.272,4.691a3.442,3.442,0,0,0-4.7-1.261L15.279,5.912a3.443,3.443,0,0,0-1.261,4.7L15.5,13.177A28.834,28.834,0,0,0,13.174,15.5l-2.567-1.48a3.455,3.455,0,0,0-4.7,1.259l-2.478,4.3a3.439,3.439,0,0,0,1.261,4.7l2.554,1.477a28.533,28.533,0,0,0-.853,3.181H3.442A3.443,3.443,0,0,0,0,32.374v4.963a3.443,3.443,0,0,0,3.442,3.437M7.884,32.51A1.79,1.79,0,0,0,9.652,30.99,25.493,25.493,0,0,1,11.1,25.6a1.785,1.785,0,0,0-.772-2.2l-3.8-2.043,2.294-4.246,3.857,2.227a1.789,1.789,0,0,0,2.291-.43,25.7,25.7,0,0,1,3.946-3.946,1.789,1.789,0,0,0,.425-2.289L17.066,9.008l4.113-2.53L23.4,10.333a1.8,1.8,0,0,0,2.2.769,25.447,25.447,0,0,1,5.389-1.446,1.792,1.792,0,0,0,1.519-1.77l-.135-4.31L37.2,3.444V7.886a1.79,1.79,0,0,0,1.519,1.77A25.447,25.447,0,0,1,44.106,11.1a1.788,1.788,0,0,0,2.2-.769l2.04-3.806,4.246,2.3L50.362,12.68a1.79,1.79,0,0,0,.43,2.289,25.7,25.7,0,0,1,3.946,3.946,1.783,1.783,0,0,0,2.289.43L60.7,17.069l2.53,4.113-3.852,2.225a1.787,1.787,0,0,0-.772,2.2,25.315,25.315,0,0,1,1.448,5.386,1.788,1.788,0,0,0,1.768,1.519h4.314l.13,4.691H61.821a1.788,1.788,0,0,0-1.768,1.519,25.3,25.3,0,0,1-1.448,5.389,1.786,1.786,0,0,0,.772,2.2l3.8,2.04-2.294,4.248-3.86-2.225a1.786,1.786,0,0,0-2.289.425,25.608,25.608,0,0,1-3.946,3.948,1.789,1.789,0,0,0-.43,2.289L52.639,60.7l-4.113,2.527L46.3,59.382a1.792,1.792,0,0,0-2.2-.774,25.315,25.315,0,0,1-5.389,1.45A1.785,1.785,0,0,0,37.2,61.826l.135,4.31-4.826.135V61.826a1.788,1.788,0,0,0-1.519-1.768,25.315,25.315,0,0,1-5.389-1.45,1.793,1.793,0,0,0-2.2.774l-2.04,3.8-4.243-2.294,2.222-3.857a1.788,1.788,0,0,0-.425-2.289A25.5,25.5,0,0,1,14.969,50.8a1.79,1.79,0,0,0-2.291-.425L9,52.641l-2.527-4.11,3.852-2.225a1.788,1.788,0,0,0,.772-2.2A25.414,25.414,0,0,1,9.652,38.72,1.79,1.79,0,0,0,7.884,37.2l-4.31.138L3.442,32.51Z" transform="translate(0 0)" fill="#de413a"/>
        <path id="Path_1433" data-name="Path 1433" d="M24.43,41.714A17.282,17.282,0,1,0,7.148,24.429,17.3,17.3,0,0,0,24.43,41.714m0-30.988a13.705,13.705,0,1,1-13.708,13.7,13.719,13.719,0,0,1,13.708-13.7" transform="translate(10.425 10.426)" fill="#de413a"/>
        <path id="Path_1434" data-name="Path 1434" d="M74.317,28.482l-6.431-1.025c-.015-.034-.029-.071-.047-.108l3.823-5.268a1.786,1.786,0,0,0,0-2.09,23.859,23.859,0,0,0-5.431-5.44,1.786,1.786,0,0,0-2.095,0l-5.271,3.823a.91.91,0,0,0-.113-.047L57.73,11.9a1.785,1.785,0,0,0-1.473-1.48,23.724,23.724,0,0,0-7.687,0,1.791,1.791,0,0,0-1.478,1.48l-1.025,6.436a.832.832,0,0,0-.108.044L40.684,14.56a1.8,1.8,0,0,0-2.1,0A23.723,23.723,0,0,0,33.156,20a1.794,1.794,0,0,0,.007,2.092l3.82,5.258-.044.113-6.429,1.02a1.794,1.794,0,0,0-1.48,1.473,23.526,23.526,0,0,0,0,7.7,1.8,1.8,0,0,0,1.485,1.473l6.424,1.02c.015.034.027.074.044.111l-3.82,5.266a1.79,1.79,0,0,0,0,2.092,23.849,23.849,0,0,0,5.428,5.44,1.794,1.794,0,0,0,2.1,0l5.268-3.823c.042.017.076.034.116.047l1.025,6.431a1.791,1.791,0,0,0,1.478,1.48,23.557,23.557,0,0,0,7.69-.007,1.774,1.774,0,0,0,1.47-1.48l1.028-6.431c.034-.015.074-.03.108-.047l5.276,3.825a1.794,1.794,0,0,0,2.095,0,23.842,23.842,0,0,0,5.435-5.443,1.8,1.8,0,0,0-.01-2.092L67.839,40.26c.017-.039.032-.079.047-.116l6.431-1.02a1.791,1.791,0,0,0,1.478-1.473,23.378,23.378,0,0,0,.317-3.85,23.092,23.092,0,0,0-.32-3.85,1.783,1.783,0,0,0-1.475-1.47M72.439,35.8l-6.146.978a1.773,1.773,0,0,0-1.416,1.21,12.182,12.182,0,0,1-.693,1.664,1.79,1.79,0,0,0,.148,1.859l3.653,5.03a20.232,20.232,0,0,1-2.825,2.832l-5.037-3.656a1.792,1.792,0,0,0-1.836-.155,13.734,13.734,0,0,1-1.689.7,1.777,1.777,0,0,0-1.207,1.416l-.978,6.146a19.9,19.9,0,0,1-3.995,0l-.981-6.139a1.789,1.789,0,0,0-1.2-1.414,11.921,11.921,0,0,1-1.667-.7,1.8,1.8,0,0,0-1.868.143l-5.037,3.656a20.031,20.031,0,0,1-2.82-2.827l3.653-5.04a1.792,1.792,0,0,0,.145-1.854,12.093,12.093,0,0,1-.691-1.664,1.8,1.8,0,0,0-1.418-1.212l-6.146-.974c-.066-.664-.1-1.33-.1-2s.03-1.335.1-2l6.146-.974a1.794,1.794,0,0,0,1.418-1.212,12.416,12.416,0,0,1,.691-1.669,1.782,1.782,0,0,0-.15-1.854l-3.648-5.03a19.935,19.935,0,0,1,2.82-2.832L44.7,21.894a1.79,1.79,0,0,0,1.839.152,13.756,13.756,0,0,1,1.691-.7,1.79,1.79,0,0,0,1.2-1.416l.981-6.146a20.087,20.087,0,0,1,3.995,0l.978,6.141a1.782,1.782,0,0,0,1.2,1.414,11.563,11.563,0,0,1,1.667.7,1.8,1.8,0,0,0,1.868-.143l5.037-3.653a19.793,19.793,0,0,1,2.825,2.825L64.329,26.1a1.8,1.8,0,0,0-.145,1.859,11.9,11.9,0,0,1,.693,1.662,1.785,1.785,0,0,0,1.416,1.21l6.146.976c.064.664.1,1.33.1,2s-.034,1.337-.1,2" transform="translate(41.876 14.743)" fill="#de413a"/>
        <path id="Path_1435" data-name="Path 1435" d="M42.95,16.6A7.746,7.746,0,1,0,50.7,24.345,7.756,7.756,0,0,0,42.95,16.6m0,11.918a4.172,4.172,0,1,1,4.169-4.169,4.175,4.175,0,0,1-4.169,4.169" transform="translate(51.341 24.203)" fill="#de413a"/>
        <path id="Path_1436" data-name="Path 1436" d="M33.5,8.149a1.787,1.787,0,1,0,1.377,3.3A31.612,31.612,0,0,1,67.787,16.8a1.789,1.789,0,1,0,2.35-2.7A35.181,35.181,0,0,0,33.5,8.149" transform="translate(47.25 7.941)" fill="#de413a"/>
        <path id="Path_1437" data-name="Path 1437" d="M29.733,10.926a1.771,1.771,0,0,0,.939-.268A43.679,43.679,0,0,1,64.03,5.446a1.787,1.787,0,1,0,.86-3.469,47.218,47.218,0,0,0-36.1,5.64,1.788,1.788,0,0,0,.942,3.309" transform="translate(40.753 0.872)" fill="#de413a"/>
      </g>
    </g>
  </g>
</svg>
