<svg xmlns="http://www.w3.org/2000/svg" xmlns:xlink="http://www.w3.org/1999/xlink" width="536" height="248" viewBox="0 0 536 248">
  <defs>
    <clipPath id="clip-path">
      <rect id="Rectangle_6" data-name="Rectangle 6" width="118" height="118" fill="#de413a"/>
    </clipPath>
  </defs>
  <g id="Group_71" data-name="Group 71" transform="translate(-691 -1527)">
    <g id="Rectangle_29" data-name="Rectangle 29" transform="translate(691 1527)" fill="#edf4fd" stroke="#707070" stroke-width="1">
      <rect width="536" height="248" stroke="none"/>
      <rect x="0.5" y="0.5" width="535" height="247" fill="none"/>
    </g>
    <g id="Group_13" data-name="Group 13" transform="translate(900 1592)">
      <g id="Group_12" data-name="Group 12" clip-path="url(#clip-path)">
        <path id="Path_1430" data-name="Path 1430" d="M116.205,65.544a1.789,1.789,0,0,0-1.787,1.79v47.094H60.787v-2.982a6.149,6.149,0,0,1,6.141-6.141h37.359a1.788,1.788,0,0,0,1.787-1.79v-29.5a1.786,1.786,0,1,0-3.572,0v27.71H66.928a9.66,9.66,0,0,0-6.141,2.21V70.316l36.337-.027A1.809,1.809,0,0,0,98,70.06l19.089-10.7a1.79,1.79,0,0,0,0-3.12l-19.1-10.681a1.834,1.834,0,0,0-.875-.226h0l-36.317.027V9.718a6.149,6.149,0,0,1,6.141-6.141H102.5V41.6a1.786,1.786,0,1,0,3.572,0V15.5h8.344V48.262a1.788,1.788,0,0,0,3.577,0V13.715a1.791,1.791,0,0,0-1.79-1.79H106.075V1.79A1.788,1.788,0,0,0,104.287,0H66.928A9.721,9.721,0,0,0,59,4.108,9.7,9.7,0,0,0,51.069,0H13.708a1.786,1.786,0,0,0-1.785,1.79V11.925H1.792A1.792,1.792,0,0,0,0,13.715V41.187a1.788,1.788,0,0,0,3.577,0V15.5h8.346V36.415a1.786,1.786,0,1,0,3.572,0V3.577H51.069A6.146,6.146,0,0,1,57.21,9.718V45.359l-41.715.032V44.7a1.786,1.786,0,1,0-3.572,0v.693l-5.369,0A6.566,6.566,0,0,0,0,51.957L.01,63.8a6.564,6.564,0,0,0,6.554,6.551h.01l5.349,0v.57a1.786,1.786,0,1,0,3.572,0v-.573l41.715-.032v33.623a9.665,9.665,0,0,0-6.141-2.21H15.495v-22.4a1.786,1.786,0,1,0-3.572,0v24.188a1.786,1.786,0,0,0,1.785,1.79H51.069a6.146,6.146,0,0,1,6.141,6.141v2.982H3.577V74.559a1.788,1.788,0,1,0-3.577,0v41.654A1.788,1.788,0,0,0,1.792,118H116.205a1.788,1.788,0,0,0,1.79-1.787V67.334a1.79,1.79,0,0,0-1.79-1.79M98.9,50.165,112.555,57.8,98.9,65.456ZM11.923,66.776l-5.354,0h0A2.98,2.98,0,0,1,3.587,63.8l-.01-11.844a2.992,2.992,0,0,1,2.982-2.984l5.364,0Zm3.572-17.811,79.825-.059V56.03l-79.825.052Zm0,17.808V59.656L95.319,59.6v7.109Z" fill="#de413a"/>
      </g>
    </g>
  </g>
</svg>
