<svg xmlns="http://www.w3.org/2000/svg" xmlns:xlink="http://www.w3.org/1999/xlink" width="536" height="248" viewBox="0 0 536 248">
  <defs>
    <clipPath id="clip-path">
      <rect id="Rectangle_2" data-name="Rectangle 2" width="118" height="118" transform="translate(0.374 0.375)" fill="#de413a"/>
    </clipPath>
  </defs>
  <g id="Group_67" data-name="Group 67" transform="translate(-140 -625)">
    <g id="Rectangle_25" data-name="Rectangle 25" transform="translate(140 625)" fill="#edf4fd" stroke="#707070" stroke-width="1">
      <rect width="536" height="248" stroke="none"/>
      <rect x="0.5" y="0.5" width="535" height="247" fill="none"/>
    </g>
    <g id="Group_5" data-name="Group 5" transform="translate(348.629 689.628)">
      <g id="Group_4" data-name="Group 4" transform="translate(-0.003 -0.002)" clip-path="url(#clip-path)">
        <path id="Path_1403" data-name="Path 1403" d="M22.972,11.949a1.8,1.8,0,1,0,0,3.6H35.441a1.8,1.8,0,1,0,0-3.6Z" transform="translate(31.213 17.615)" fill="#de413a"/>
        <path id="Path_1404" data-name="Path 1404" d="M116.808,24.014l-8.436-8.426a6.553,6.553,0,0,0-4.663-1.93h0a6.557,6.557,0,0,0-4.666,1.935l-3.8,3.807-.4-.4a1.8,1.8,0,0,0-2.546,2.546l.406.406L34.651,80.079a1.815,1.815,0,0,0-.458.782l-5.581,19.825A14.446,14.446,0,0,1,29.956,71.86a9.905,9.905,0,0,0,0-19.811H24.991a9.446,9.446,0,1,1,0-18.893H44.584a1.8,1.8,0,1,0,0-3.6H24.991a13.045,13.045,0,0,0,0,26.089h4.965a6.3,6.3,0,1,1,0,12.609,18.047,18.047,0,0,0,0,36.093,1.663,1.663,0,0,0,.49-.069l21.2-6a1.8,1.8,0,0,0,.782-.458L91.156,59.036v36.92H73.763a1.8,1.8,0,0,0-1.8,1.8v17.394H3.6V3.6H91.156v7.068a1.8,1.8,0,1,0,3.6,0V1.8a1.8,1.8,0,0,0-1.8-1.8H1.8A1.8,1.8,0,0,0,0,1.8V116.946a1.8,1.8,0,0,0,1.8,1.8H73.763a1.8,1.8,0,0,0,1.274-.527l19.19-19.192a1.785,1.785,0,0,0,.527-1.272V55.434l15.7-15.726.492.492a1.8,1.8,0,1,0,2.546-2.546l-.5-.492,3.817-3.822a6.6,6.6,0,0,0-.007-9.326M75.564,112.6V99.555H88.611ZM95.241,24.491l5.062,5.064L43.535,86.4,38.478,81.34ZM32.558,99.946l4.27-15.167L47.711,95.661Zm18.591-5.935L46.08,88.942,102.848,32.1l5.064,5.064ZM114.267,30.8l-3.815,3.82L97.781,21.946l3.807-3.81a3,3,0,0,1,4.24,0l8.436,8.423a3,3,0,0,1,0,4.24" transform="translate(0.006 0.004)" fill="#de413a"/>
      </g>
    </g>
  </g>
</svg>
