<svg xmlns="http://www.w3.org/2000/svg" xmlns:xlink="http://www.w3.org/1999/xlink" width="536" height="248" viewBox="0 0 536 248">
  <defs>
    <clipPath id="clip-path">
      <rect id="Rectangle_4" data-name="Rectangle 4" width="118" height="118.002" fill="#de413a"/>
    </clipPath>
  </defs>
  <g id="Group_69" data-name="Group 69" transform="translate(-1243 -1166)">
    <g id="Rectangle_27" data-name="Rectangle 27" transform="translate(1243 1166)" fill="#edf4fd" stroke="#707070" stroke-width="1">
      <rect width="536" height="248" stroke="none"/>
      <rect x="0.5" y="0.5" width="535" height="247" fill="none"/>
    </g>
    <g id="Group_9" data-name="Group 9" transform="translate(1452 1231)">
      <g id="Group_8" data-name="Group 8" clip-path="url(#clip-path)">
        <path id="Path_1417" data-name="Path 1417" d="M5.67,40.18a1.787,1.787,0,0,0,1.785-1.787V24.09a1.788,1.788,0,0,0-3.577,0v14.3A1.791,1.791,0,0,0,5.67,40.18" transform="translate(5.656 32.526)" fill="#de413a"/>
        <path id="Path_1418" data-name="Path 1418" d="M108.963,43.749V35.162A35.411,35.411,0,0,0,73.388,0H44.615A35.411,35.411,0,0,0,9.039,35.162v8.587A13.717,13.717,0,0,0,0,56.622v14.3A13.722,13.722,0,0,0,13.708,84.63h2.385a6.561,6.561,0,0,0,6.554-6.557V49.47a6.563,6.563,0,0,0-6.554-6.559H13.708c-.369,0-.733.027-1.094.057V35.162a31.831,31.831,0,0,1,32-31.585H73.388a31.831,31.831,0,0,1,32,31.585v7.805c-.361-.03-.725-.057-1.094-.057h-1.379a6.566,6.566,0,0,0-6.557,6.559v28.6a6.564,6.564,0,0,0,6.557,6.557h1.379c.339,0,.671-.027,1-.049a31.832,31.832,0,0,1-31.91,29.847H71.841a7.7,7.7,0,0,0,1.239-4.172v-2.385a7.756,7.756,0,0,0-7.749-7.746H53.165a7.755,7.755,0,0,0-7.746,7.746v2.385A7.755,7.755,0,0,0,53.165,118H73.388a35.4,35.4,0,0,0,35.526-34.191A13.714,13.714,0,0,0,118,70.924v-14.3a13.719,13.719,0,0,0-9.037-12.872M13.708,46.491h2.385a2.982,2.982,0,0,1,2.98,2.98v28.6a2.984,2.984,0,0,1-2.98,2.982H13.708A10.142,10.142,0,0,1,3.577,70.924v-14.3A10.142,10.142,0,0,1,13.708,46.491m55.8,63.766a4.178,4.178,0,0,1-4.174,4.172H53.165a4.177,4.177,0,0,1-4.172-4.172v-2.385a4.179,4.179,0,0,1,4.172-4.172H65.332a4.179,4.179,0,0,1,4.174,4.172Zm44.92-39.332a10.142,10.142,0,0,1-10.131,10.131h-1.379a2.983,2.983,0,0,1-2.98-2.982V49.47a2.981,2.981,0,0,1,2.98-2.98h1.379a10.142,10.142,0,0,1,10.131,10.131Z" fill="#de413a"/>
        <path id="Path_1419" data-name="Path 1419" d="M44.658,22.3a1.789,1.789,0,0,0-1.787,1.79v14.3a1.787,1.787,0,1,0,3.574,0v-14.3a1.789,1.789,0,0,0-1.787-1.79" transform="translate(62.522 32.526)" fill="#de413a"/>
        <path id="Path_1420" data-name="Path 1420" d="M38.04,75.7a1.786,1.786,0,0,0,2.527,0l11.4-11.4H63.14a1.791,1.791,0,0,0,1.79-1.787V12.454a1.789,1.789,0,0,0-1.79-1.787H15.464a1.787,1.787,0,0,0-1.787,1.787v50.06A1.789,1.789,0,0,0,15.464,64.3H26.643ZM17.254,14.241h44.1V60.727H51.221a1.768,1.768,0,0,0-1.261.524L39.306,71.905,28.649,61.251a1.778,1.778,0,0,0-1.264-.524H17.254Z" transform="translate(19.946 15.557)" fill="#de413a"/>
        <path id="Path_1421" data-name="Path 1421" d="M22.07,27.192a1.788,1.788,0,0,0,1.787-1.79,6.561,6.561,0,0,1,12.934-1.566,6.611,6.611,0,0,1-3.857,7.619,7.177,7.177,0,0,0-4.307,6.711v1.387a1.788,1.788,0,1,0,3.577,0V38.167a3.667,3.667,0,0,1,2.1-3.41A10.176,10.176,0,0,0,40.277,23.04a10.02,10.02,0,0,0-7.5-7.5A10.211,10.211,0,0,0,24.1,17.479,10.1,10.1,0,0,0,20.283,25.4a1.789,1.789,0,0,0,1.787,1.79" transform="translate(29.58 22.283)" fill="#de413a"/>
        <path id="Path_1422" data-name="Path 1422" d="M25.464,27.695a1.787,1.787,0,1,0,1.79,1.787,1.787,1.787,0,0,0-1.79-1.787" transform="translate(34.53 40.39)" fill="#de413a"/>
      </g>
    </g>
  </g>
</svg>
