<svg xmlns="http://www.w3.org/2000/svg" xmlns:xlink="http://www.w3.org/1999/xlink" width="536" height="248" viewBox="0 0 536 248">
  <defs>
    <clipPath id="clip-path">
      <rect id="Rectangle_71" data-name="Rectangle 71" width="118" height="117.997" fill="#de413a"/>
    </clipPath>
  </defs>
  <g id="Group_139" data-name="Group 139" transform="translate(-1243 -2608)">
    <g id="Rectangle_68" data-name="Rectangle 68" transform="translate(1243 2608)" fill="#edf4fd" stroke="#707070" stroke-width="1">
      <rect width="536" height="248" stroke="none"/>
      <rect x="0.5" y="0.5" width="535" height="247" fill="none"/>
    </g>
    <g id="Group_138" data-name="Group 138" transform="translate(1452 2673)">
      <g id="Group_137" data-name="Group 137" clip-path="url(#clip-path)">
        <path id="Path_1667" data-name="Path 1667" d="M97.507,133.251H84.479a1.487,1.487,0,0,1-1.473-1.283l-1.261-9.106a33.029,33.029,0,0,1-6.756-2.8l-7.329,5.546a1.487,1.487,0,0,1-1.949-.135L56.5,116.265a1.487,1.487,0,0,1-.135-1.949l5.546-7.329a33.04,33.04,0,0,1-2.8-6.756l-9.105-1.261A1.487,1.487,0,0,1,48.725,97.5V84.47A1.487,1.487,0,0,1,50.009,83l9.105-1.261a33,33,0,0,1,2.8-6.756L56.364,67.65A1.488,1.488,0,0,1,56.5,65.7l9.212-9.212a1.488,1.488,0,0,1,1.949-.134L74.989,61.9a32.992,32.992,0,0,1,6.756-2.8L83.006,50a1.487,1.487,0,0,1,1.473-1.284H97.507A1.487,1.487,0,0,1,98.98,50l1.261,9.106A33.007,33.007,0,0,1,107,61.9l7.329-5.546a1.487,1.487,0,0,1,1.949.134l9.212,9.212a1.487,1.487,0,0,1,.135,1.949l-5.546,7.329a33,33,0,0,1,2.8,6.756L131.978,83a1.487,1.487,0,0,1,1.283,1.473V97.5a1.487,1.487,0,0,1-1.283,1.473l-9.106,1.261a33.033,33.033,0,0,1-2.8,6.756l5.546,7.329a1.486,1.486,0,0,1-.135,1.949l-9.212,9.212a1.488,1.488,0,0,1-1.949.135L107,120.066a33.031,33.031,0,0,1-6.756,2.8l-1.261,9.106a1.487,1.487,0,0,1-1.473,1.283m-11.733-2.974H96.211l1.218-8.794a1.488,1.488,0,0,1,1.1-1.237,30.023,30.023,0,0,0,7.822-3.238,1.487,1.487,0,0,1,1.655.094l7.079,5.356,7.38-7.38L117.111,108a1.487,1.487,0,0,1-.094-1.655,30.015,30.015,0,0,0,3.238-7.822,1.487,1.487,0,0,1,1.237-1.1l8.795-1.218V85.765l-8.795-1.218a1.487,1.487,0,0,1-1.237-1.1,30.026,30.026,0,0,0-3.238-7.822,1.487,1.487,0,0,1,.094-1.655l5.357-7.079-7.38-7.38-7.079,5.357a1.486,1.486,0,0,1-1.655.094,30.029,30.029,0,0,0-7.822-3.238,1.488,1.488,0,0,1-1.1-1.237L96.211,51.69H85.774l-1.218,8.795a1.487,1.487,0,0,1-1.1,1.237,30.024,30.024,0,0,0-7.822,3.238,1.488,1.488,0,0,1-1.655-.094L66.9,59.508l-7.38,7.38,5.357,7.079a1.487,1.487,0,0,1,.094,1.655,30.047,30.047,0,0,0-3.239,7.822,1.487,1.487,0,0,1-1.237,1.1L51.7,85.765V96.2l8.795,1.217a1.487,1.487,0,0,1,1.237,1.1,30.035,30.035,0,0,0,3.239,7.822A1.487,1.487,0,0,1,64.875,108l-5.357,7.078,7.38,7.38,7.079-5.356a1.488,1.488,0,0,1,1.655-.094,30.016,30.016,0,0,0,7.822,3.238,1.487,1.487,0,0,1,1.1,1.237Zm46-32.779h0Z" transform="translate(-31.993 -31.987)" fill="#de413a"/>
        <path id="Path_1668" data-name="Path 1668" d="M221.294,15.149a7.194,7.194,0,1,1,6.639-4.4,7.152,7.152,0,0,1-6.639,4.4m.015-11.414a4.22,4.22,0,1,0,1.633.331,4.227,4.227,0,0,0-1.633-.331m5.254,6.435h0Z" transform="translate(-140.586 -0.499)" fill="#de413a"/>
        <path id="Path_1669" data-name="Path 1669" d="M214.132,45.158a1.488,1.488,0,0,1-1.371-2.063l3.986-9.5a1.488,1.488,0,0,1,2.743,1.151l-3.986,9.5a1.488,1.488,0,0,1-1.372.912" transform="translate(-139.625 -21.46)" fill="#de413a"/>
        <path id="Path_1670" data-name="Path 1670" d="M94.806,315.339a7.194,7.194,0,1,1,6.639-4.4,7.156,7.156,0,0,1-6.639,4.4m-3.879-8.833a4.22,4.22,0,1,0,5.528-2.25,4.225,4.225,0,0,0-5.528,2.25" transform="translate(-57.533 -197.606)" fill="#de413a"/>
        <path id="Path_1671" data-name="Path 1671" d="M112.2,287.077a1.488,1.488,0,0,1-1.371-2.063l3.986-9.5a1.488,1.488,0,0,1,2.743,1.151l-3.986,9.5a1.488,1.488,0,0,1-1.372.912" transform="translate(-72.696 -180.307)" fill="#de413a"/>
        <path id="Path_1672" data-name="Path 1672" d="M308.913,103.827a7.212,7.212,0,1,1,2.713-.535,7.183,7.183,0,0,1-2.713.535m2.153-1.913h0Zm-2.152-9.508a4.229,4.229,0,1,0,1.638.333,4.219,4.219,0,0,0-1.638-.333" transform="translate(-198.111 -58.72)" fill="#de413a"/>
        <path id="Path_1673" data-name="Path 1673" d="M276.659,119.183a1.489,1.489,0,0,1-.439-2.914l9.416-3.837a1.487,1.487,0,0,1,1.123,2.754l-9.539,3.887a1.485,1.485,0,0,1-.561.11" transform="translate(-180.674 -73.751)" fill="#de413a"/>
        <path id="Path_1674" data-name="Path 1674" d="M7.2,226.653a7.212,7.212,0,1,1,2.713-.535,7.182,7.182,0,0,1-2.713.535m0-11.421a4.229,4.229,0,1,0,1.638.333,4.218,4.218,0,0,0-1.638-.333" transform="translate(0 -139.369)" fill="#de413a"/>
        <path id="Path_1675" data-name="Path 1675" d="M33.488,218.17a1.487,1.487,0,0,1-.562-2.865l9.539-3.887a1.491,1.491,0,1,1,1,2.8l-9.416,3.837a1.484,1.484,0,0,1-.561.11" transform="translate(-21.011 -138.747)" fill="#de413a"/>
        <path id="Path_1676" data-name="Path 1676" d="M308.145,228.488a7.195,7.195,0,1,1,6.639-4.4,7.146,7.146,0,0,1-6.639,4.4m-1.629-3.305a4.22,4.22,0,1,0-2.25-5.528,4.225,4.225,0,0,0,2.25,5.528" transform="translate(-197.614 -140.579)" fill="#de413a"/>
        <path id="Path_1677" data-name="Path 1677" d="M285.6,219.6a1.481,1.481,0,0,1-.575-.116l-9.5-3.986a1.488,1.488,0,0,1,1.151-2.743l9.5,3.986a1.488,1.488,0,0,1-.576,2.859" transform="translate(-180.313 -139.618)" fill="#de413a"/>
        <path id="Path_1678" data-name="Path 1678" d="M7.954,102a7.194,7.194,0,1,1,6.64-4.4,7.15,7.15,0,0,1-6.64,4.4m.016-11.414a4.22,4.22,0,1,0,1.633.331,4.226,4.226,0,0,0-1.633-.331" transform="translate(-0.505 -57.525)" fill="#de413a"/>
        <path id="Path_1679" data-name="Path 1679" d="M43.679,117.667a1.481,1.481,0,0,1-.575-.116l-9.5-3.986a1.488,1.488,0,0,1,1.151-2.743l9.5,3.986a1.487,1.487,0,0,1-.576,2.859" transform="translate(-21.467 -72.69)" fill="#de413a"/>
        <path id="Path_1680" data-name="Path 1680" d="M219.464,316.094a7.213,7.213,0,1,1,2.713-.535,7.182,7.182,0,0,1-2.713.535m0-11.418a4.22,4.22,0,1,0,3.913,2.628,4.2,4.2,0,0,0-3.913-2.628" transform="translate(-139.376 -198.097)" fill="#de413a"/>
        <path id="Path_1681" data-name="Path 1681" d="M216.693,287.675a1.488,1.488,0,0,1-1.378-.926l-3.887-9.539a1.491,1.491,0,1,1,2.8-1l3.837,9.416a1.488,1.488,0,0,1-1.377,2.049" transform="translate(-138.753 -180.667)" fill="#de413a"/>
        <path id="Path_1682" data-name="Path 1682" d="M96.638,14.393a7.212,7.212,0,1,1,2.713-.535,7.182,7.182,0,0,1-2.713.535m0-11.418A4.22,4.22,0,1,0,100.547,5.6a4.2,4.2,0,0,0-3.914-2.628" transform="translate(-58.727 0)" fill="#de413a"/>
        <path id="Path_1683" data-name="Path 1683" d="M117.706,44.524a1.488,1.488,0,0,1-1.379-.927l-3.886-9.559a1.487,1.487,0,1,1,2.756-1.121l3.887,9.559a1.488,1.488,0,0,1-1.377,2.048" transform="translate(-73.758 -21.005)" fill="#de413a"/>
        <path id="Path_1684" data-name="Path 1684" d="M155.836,157.313h-28.8a1.487,1.487,0,0,1-1.487-1.487v-28.8a1.487,1.487,0,0,1,1.487-1.487h28.8a1.487,1.487,0,0,1,1.487,1.487v28.8a1.487,1.487,0,0,1-1.487,1.487m-27.317-2.974h25.83v-25.83h-25.83Z" transform="translate(-82.433 -82.427)" fill="#de413a"/>
        <path id="Path_1685" data-name="Path 1685" d="M163.465,164.942H151.387a1.487,1.487,0,0,1-1.487-1.487V151.377a1.487,1.487,0,0,1,1.487-1.487h12.077a1.487,1.487,0,0,1,1.487,1.487v12.077a1.487,1.487,0,0,1-1.487,1.487m-10.59-2.975h9.1v-9.1h-9.1Z" transform="translate(-98.426 -98.419)" fill="#de413a"/>
        <path id="Path_1686" data-name="Path 1686" d="M146.254,115.723a1.487,1.487,0,0,1-1.487-1.487v-6.687a1.487,1.487,0,1,1,2.974,0v6.687a1.487,1.487,0,0,1-1.487,1.487" transform="translate(-95.055 -69.641)" fill="#de413a"/>
        <path id="Path_1687" data-name="Path 1687" d="M168.972,115.723a1.487,1.487,0,0,1-1.487-1.487v-6.687a1.487,1.487,0,1,1,2.974,0v6.687a1.487,1.487,0,0,1-1.487,1.487" transform="translate(-109.972 -69.641)" fill="#de413a"/>
        <path id="Path_1688" data-name="Path 1688" d="M191.69,115.723a1.487,1.487,0,0,1-1.487-1.487v-6.687a1.487,1.487,0,1,1,2.974,0v6.687a1.487,1.487,0,0,1-1.487,1.487" transform="translate(-124.889 -69.641)" fill="#de413a"/>
        <path id="Path_1689" data-name="Path 1689" d="M146.254,219.077a1.487,1.487,0,0,1-1.487-1.487V210.9a1.487,1.487,0,0,1,2.974,0v6.687a1.487,1.487,0,0,1-1.487,1.487" transform="translate(-95.055 -137.505)" fill="#de413a"/>
        <path id="Path_1690" data-name="Path 1690" d="M168.972,219.077a1.487,1.487,0,0,1-1.487-1.487V210.9a1.487,1.487,0,0,1,2.974,0v6.687a1.487,1.487,0,0,1-1.487,1.487" transform="translate(-109.972 -137.505)" fill="#de413a"/>
        <path id="Path_1691" data-name="Path 1691" d="M191.69,219.077a1.487,1.487,0,0,1-1.487-1.487V210.9a1.487,1.487,0,0,1,2.974,0v6.687a1.487,1.487,0,0,1-1.487,1.487" transform="translate(-124.889 -137.505)" fill="#de413a"/>
        <path id="Path_1692" data-name="Path 1692" d="M217.6,147.731h-6.687a1.487,1.487,0,1,1,0-2.974H217.6a1.487,1.487,0,0,1,0,2.974" transform="translate(-137.511 -95.049)" fill="#de413a"/>
        <path id="Path_1693" data-name="Path 1693" d="M217.6,170.45h-6.687a1.487,1.487,0,1,1,0-2.974H217.6a1.487,1.487,0,0,1,0,2.974" transform="translate(-137.511 -109.966)" fill="#de413a"/>
        <path id="Path_1694" data-name="Path 1694" d="M217.6,193.167h-6.687a1.487,1.487,0,1,1,0-2.974H217.6a1.487,1.487,0,0,1,0,2.974" transform="translate(-137.511 -124.883)" fill="#de413a"/>
        <path id="Path_1695" data-name="Path 1695" d="M114.245,147.731h-6.687a1.487,1.487,0,1,1,0-2.974h6.687a1.487,1.487,0,1,1,0,2.974" transform="translate(-69.647 -95.049)" fill="#de413a"/>
        <path id="Path_1696" data-name="Path 1696" d="M114.245,170.45h-6.687a1.487,1.487,0,1,1,0-2.974h6.687a1.487,1.487,0,1,1,0,2.974" transform="translate(-69.647 -109.966)" fill="#de413a"/>
        <path id="Path_1697" data-name="Path 1697" d="M114.245,193.167h-6.687a1.487,1.487,0,1,1,0-2.974h6.687a1.487,1.487,0,1,1,0,2.974" transform="translate(-69.647 -124.883)" fill="#de413a"/>
      </g>
    </g>
  </g>
</svg>
