<svg xmlns="http://www.w3.org/2000/svg" xmlns:xlink="http://www.w3.org/1999/xlink" width="536" height="248" viewBox="0 0 536 248">
  <defs>
    <clipPath id="clip-path">
      <rect id="Rectangle_3" data-name="Rectangle 3" width="118" height="118" fill="#de413a"/>
    </clipPath>
  </defs>
  <g id="Group_68" data-name="Group 68" transform="translate(-691 -1166)">
    <g id="Rectangle_26" data-name="Rectangle 26" transform="translate(691 1166)" fill="#edf4fd" stroke="#707070" stroke-width="1">
      <rect width="536" height="248" stroke="none"/>
      <rect x="0.5" y="0.5" width="535" height="247" fill="none"/>
    </g>
    <g id="Group_6" data-name="Group 6" transform="translate(900 1231)" clip-path="url(#clip-path)">
      <path id="Path_1405" data-name="Path 1405" d="M34.274,17.455H5.666a1.787,1.787,0,1,0,0,3.574H34.274a1.787,1.787,0,1,0,0-3.574" transform="translate(5.657 25.455)" fill="#de413a"/>
      <path id="Path_1406" data-name="Path 1406" d="M5.666,15.211h14.3a1.787,1.787,0,1,0,0-3.574H5.666a1.787,1.787,0,0,0,0,3.574" transform="translate(5.657 16.971)" fill="#de413a"/>
      <path id="Path_1407" data-name="Path 1407" d="M15.365,15.211H34.436a1.787,1.787,0,1,0,0-3.574H15.365a1.787,1.787,0,1,0,0,3.574" transform="translate(19.797 16.971)" fill="#de413a"/>
      <path id="Path_1408" data-name="Path 1408" d="M27,15.211H46.073a1.787,1.787,0,1,0,0-3.574H27a1.787,1.787,0,0,0,0,3.574" transform="translate(36.77 16.971)" fill="#de413a"/>
      <path id="Path_1409" data-name="Path 1409" d="M5.666,26.849H27.123a1.787,1.787,0,1,0,0-3.574H5.666a1.787,1.787,0,0,0,0,3.574" transform="translate(5.657 33.943)" fill="#de413a"/>
      <path id="Path_1410" data-name="Path 1410" d="M5.666,32.67h7.151a1.788,1.788,0,1,0,0-3.577H5.666a1.788,1.788,0,0,0,0,3.577" transform="translate(5.657 42.427)" fill="#de413a"/>
      <path id="Path_1411" data-name="Path 1411" d="M24.373,29.093H12.455a1.788,1.788,0,0,0,0,3.577H24.373a1.788,1.788,0,0,0,0-3.577" transform="translate(15.557 42.427)" fill="#de413a"/>
      <path id="Path_1412" data-name="Path 1412" d="M5.666,38.488H27.123a1.788,1.788,0,0,0,0-3.577H5.666a1.788,1.788,0,0,0,0,3.577" transform="translate(5.657 50.912)" fill="#de413a"/>
      <path id="Path_1413" data-name="Path 1413" d="M34.274,40.73H5.666a1.787,1.787,0,1,0,0,3.574H34.274a1.787,1.787,0,1,0,0-3.574" transform="translate(5.657 59.398)" fill="#de413a"/>
      <path id="Path_1414" data-name="Path 1414" d="M116.213,42.91H94.162V11.323A11.335,11.335,0,0,0,82.838,0H11.323A11.335,11.335,0,0,0,0,11.323v95.356A11.335,11.335,0,0,0,11.323,118H82.838a11.335,11.335,0,0,0,11.323-11.321V103.7h22.051A1.789,1.789,0,0,0,118,101.91V44.7a1.786,1.786,0,0,0-1.787-1.79M27.415,3.577H66.749V8.941A5.37,5.37,0,0,1,61.385,14.3H32.777a5.368,5.368,0,0,1-5.362-5.362Zm63.172,103.1a7.759,7.759,0,0,1-7.749,7.746H11.323a7.759,7.759,0,0,1-7.749-7.746V11.323a7.757,7.757,0,0,1,7.749-7.746H23.838V8.941a8.948,8.948,0,0,0,8.939,8.938H61.385a8.948,8.948,0,0,0,8.938-8.938V3.577H82.838a7.757,7.757,0,0,1,7.749,7.746V42.91H49.467a1.788,1.788,0,0,0-1.787,1.79v57.21a1.791,1.791,0,0,0,1.787,1.79H90.587Zm23.838-6.559H51.256V46.485h63.169Z" fill="#de413a"/>
      <path id="Path_1415" data-name="Path 1415" d="M35.56,56.319a.83.83,0,0,1,.772.565.619.619,0,0,1-.2.728c-2.635,2.21-4.3,4.427-4.956,6.6a1.786,1.786,0,0,0,1.2,2.227,1.7,1.7,0,0,0,.516.076A1.79,1.79,0,0,0,34.6,65.24a11.539,11.539,0,0,1,3.83-4.89,4.162,4.162,0,0,0,1.286-4.622A4.387,4.387,0,0,0,35.7,52.747c-2.294-.091-5.327-.578-6.76-2.4-.939-1.187-1.182-2.957-.725-5.256a4.834,4.834,0,0,1,2.134-3.528c1.637-.944,4.341-.809,7.825.383a4.326,4.326,0,0,0,5.253-6.087c-1.091-2.092-2.2-5.042-1.3-7.23.6-1.441,2.09-2.544,4.432-3.274a4.978,4.978,0,0,1,4.157.155c1.48.878,2.589,3,3.206,6.151a4.37,4.37,0,0,0,3.5,3.481,4.185,4.185,0,0,0,4.4-1.935c1.387-2.2,3.574-4.909,6.141-5.3,1.586-.231,3.228.391,5.027,1.927a1.787,1.787,0,0,0,2.321-2.719c-2.6-2.22-5.253-3.132-7.889-2.741-3.132.477-6.035,2.81-8.626,6.93a.663.663,0,0,1-.72.325.787.787,0,0,1-.644-.654c-.828-4.228-2.473-7.1-4.885-8.535a8.428,8.428,0,0,0-7.053-.494c-3.4,1.06-5.644,2.852-6.667,5.317-1.153,2.78-.674,6.229,1.426,10.251a.708.708,0,0,1-.093.831.731.731,0,0,1-.828.224c-4.55-1.561-8.176-1.6-10.77-.1a8.306,8.306,0,0,0-3.86,5.932c-.666,3.373-.187,6.121,1.428,8.169,1.829,2.316,5,3.579,9.425,3.751" transform="translate(35.606 31.232)" fill="#de413a"/>
      <path id="Path_1416" data-name="Path 1416" d="M44.446,29.96a8.084,8.084,0,0,0-10,5.553A8.088,8.088,0,1,0,49.3,33.8a8.006,8.006,0,0,0-4.85-3.845m2.119,9.01a4.511,4.511,0,1,1-.4-3.427,4.509,4.509,0,0,1,.4,3.427" transform="translate(49.782 43.227)" fill="#de413a"/>
    </g>
  </g>
</svg>
