<svg xmlns="http://www.w3.org/2000/svg" xmlns:xlink="http://www.w3.org/1999/xlink" width="536" height="248" viewBox="0 0 536 248">
  <defs>
    <clipPath id="clip-path">
      <rect id="Rectangle_8" data-name="Rectangle 8" width="99.307" height="118" fill="#de413a"/>
    </clipPath>
  </defs>
  <g id="Group_73" data-name="Group 73" transform="translate(-139 -1890)">
    <g id="Rectangle_31" data-name="Rectangle 31" transform="translate(139 1890)" fill="#edf4fd" stroke="#707070" stroke-width="1">
      <rect width="536" height="248" stroke="none"/>
      <rect x="0.5" y="0.5" width="535" height="247" fill="none"/>
    </g>
    <g id="Group_17" data-name="Group 17" transform="translate(357 1955)">
      <g id="Group_16" data-name="Group 16" clip-path="url(#clip-path)">
        <path id="Path_1438" data-name="Path 1438" d="M92.032,17.595,83.6,9.17a5.379,5.379,0,0,0-7.586,0l-4.7,4.708a1.788,1.788,0,0,0-2.53,2.527v0L9.5,75.779a1.762,1.762,0,0,0-.46.8L3.969,95.138A1.79,1.79,0,0,0,5.695,97.4a1.931,1.931,0,0,0,.474-.061l18.556-5.089a1.824,1.824,0,0,0,.794-.462L84.811,32.419a1.788,1.788,0,0,0,2.525-2.532l4.7-4.708a5.359,5.359,0,0,0-.007-7.584M71.318,18.937l4.216,4.214L17.5,81.253l-4.219-4.211ZM11.674,80.484l9.14,9.125L8.247,93.058Zm12.579,7.508-4.218-4.211,58.031-58.1,4.214,4.211Zm65.256-65.34-4.7,4.708L73.842,16.407l4.7-4.7a1.794,1.794,0,0,1,2.53,0l8.435,8.425a1.761,1.761,0,0,1,.524,1.259,1.781,1.781,0,0,1-.521,1.266" transform="translate(5.7 11.094)" fill="#de413a"/>
        <path id="Path_1439" data-name="Path 1439" d="M41.469,9.538a1.787,1.787,0,0,0-1.79-1.785L22.4,7.765a1.787,1.787,0,0,0,0,3.574h0l17.282-.01a1.787,1.787,0,0,0,1.787-1.792" transform="translate(30.061 11.306)" fill="#de413a"/>
        <path id="Path_1440" data-name="Path 1440" d="M14.4,11.342l10.131-.007a1.787,1.787,0,0,0,0-3.574h0L14.4,7.767a1.787,1.787,0,0,0,0,3.574Z" transform="translate(18.394 11.317)" fill="#de413a"/>
        <path id="Path_1441" data-name="Path 1441" d="M37.886,15.364A1.786,1.786,0,0,0,36.1,13.577l-20.842.02a1.787,1.787,0,1,0,0,3.574h0L36.1,17.154a1.787,1.787,0,0,0,1.785-1.79" transform="translate(19.644 19.8)" fill="#de413a"/>
        <path id="Path_1442" data-name="Path 1442" d="M18.292,17.159a1.787,1.787,0,1,0,0-3.574l-11.65,0a1.788,1.788,0,1,0,0,3.577Z" transform="translate(7.076 19.811)" fill="#de413a"/>
        <path id="Path_1443" data-name="Path 1443" d="M35.261,21.191a1.789,1.789,0,0,0-1.787-1.79l-26.83.01a1.788,1.788,0,0,0,0,3.577l26.83-.007a1.789,1.789,0,0,0,1.787-1.79" transform="translate(7.082 28.293)" fill="#de413a"/>
        <path id="Path_1444" data-name="Path 1444" d="M20.938,25.213l-14.293.029a1.788,1.788,0,1,0,0,3.577h0l14.3-.03a1.788,1.788,0,0,0,0-3.577Z" transform="translate(7.085 36.769)" fill="#de413a"/>
        <path id="Path_1445" data-name="Path 1445" d="M92.364,51.652a1.79,1.79,0,0,0-1.79,1.79v60.984h-87V22.654H20.869a1.787,1.787,0,0,0,1.785-1.787V3.577H90.575V13.9a1.788,1.788,0,0,0,3.577,0V1.787A1.789,1.789,0,0,0,92.364,0h-71.5A1.8,1.8,0,0,0,19.6.521L.526,19.6A1.79,1.79,0,0,0,0,20.866v95.346A1.791,1.791,0,0,0,1.79,118H92.364a1.789,1.789,0,0,0,1.787-1.787V53.442a1.789,1.789,0,0,0-1.787-1.79M19.079,6.1V19.077H6.106Z" fill="#de413a"/>
        <path id="Path_1446" data-name="Path 1446" d="M41.192,34.534a1.787,1.787,0,1,0,0-3.574h-12.5a1.787,1.787,0,1,0,0,3.574Z" transform="translate(39.235 45.15)" fill="#de413a"/>
        <path id="Path_1447" data-name="Path 1447" d="M21.085,38.568a1.787,1.787,0,0,0,1.787,1.787H49.678a1.788,1.788,0,0,0,0-3.577H22.872a1.789,1.789,0,0,0-1.787,1.79" transform="translate(30.749 53.635)" fill="#de413a"/>
      </g>
    </g>
  </g>
</svg>
