<svg xmlns="http://www.w3.org/2000/svg" xmlns:xlink="http://www.w3.org/1999/xlink" width="536" height="248" viewBox="0 0 536 248">
  <defs>
    <clipPath id="clip-path">
      <rect id="Rectangle_5" data-name="Rectangle 5" width="103.697" height="118" fill="#de413a"/>
    </clipPath>
  </defs>
  <g id="Group_70" data-name="Group 70" transform="translate(-139 -1527)">
    <g id="Rectangle_28" data-name="Rectangle 28" transform="translate(139 1527)" fill="#edf4fd" stroke="#707070" stroke-width="1">
      <rect width="536" height="248" stroke="none"/>
      <rect x="0.5" y="0.5" width="535" height="247" fill="none"/>
    </g>
    <g id="Group_11" data-name="Group 11" transform="translate(355 1592)">
      <g id="Group_10" data-name="Group 10" clip-path="url(#clip-path)">
        <path id="Path_1423" data-name="Path 1423" d="M22.275,23.475a1.79,1.79,0,0,0-1.787,1.787V27.5a1.79,1.79,0,0,0,3.579,0V25.262a1.791,1.791,0,0,0-1.792-1.787" transform="translate(29.878 34.234)" fill="#de413a"/>
        <path id="Path_1424" data-name="Path 1424" d="M22.275,19.83a1.791,1.791,0,0,0-1.787,1.79v2.24a1.79,1.79,0,0,0,3.579,0V21.62a1.792,1.792,0,0,0-1.792-1.79" transform="translate(29.878 28.919)" fill="#de413a"/>
        <path id="Path_1425" data-name="Path 1425" d="M22.275,27.119a1.789,1.789,0,0,0-1.787,1.787V30.1a1.79,1.79,0,1,0,3.579,0v-1.19a1.79,1.79,0,0,0-1.792-1.787" transform="translate(29.878 39.549)" fill="#de413a"/>
        <path id="Path_1426" data-name="Path 1426" d="M27.221,6.79A10.11,10.11,0,1,0,37.327,16.9,10.117,10.117,0,0,0,27.221,6.79m0,16.645A6.534,6.534,0,1,1,33.755,16.9a6.541,6.541,0,0,1-6.534,6.537" transform="translate(24.952 9.902)" fill="#de413a"/>
        <path id="Path_1427" data-name="Path 1427" d="M23.425,9.091A35.193,35.193,0,0,0,10.393,54.513a1.8,1.8,0,0,0,1.61,1,1.815,1.815,0,0,0,.787-.184,1.793,1.793,0,0,0,.811-2.4,31.625,31.625,0,0,1,11.707-40.8,1.787,1.787,0,0,0-1.883-3.038" transform="translate(9.898 12.867)" fill="#de413a"/>
        <path id="Path_1428" data-name="Path 1428" d="M30.245,9.091a1.789,1.789,0,0,0-1.888,3.038A31.432,31.432,0,0,1,43.308,38.985a31.254,31.254,0,0,1-3.24,13.949,1.788,1.788,0,1,0,3.208,1.581,34.821,34.821,0,0,0,3.606-15.529A34.986,34.986,0,0,0,30.245,9.091" transform="translate(40.125 12.866)" fill="#de413a"/>
        <path id="Path_1429" data-name="Path 1429" d="M101.905,50.062H98.837A47.067,47.067,0,0,0,53.958,4.877V1.79a1.788,1.788,0,1,0-3.577,0V4.845A47.075,47.075,0,0,0,4.853,50.062H1.785a1.788,1.788,0,0,0,0,3.577H4.838A47.047,47.047,0,0,0,38.266,96.817v13.415a7.851,7.851,0,0,0,13.887,4.936,7.849,7.849,0,0,0,13.885-4.936V96.657A47.088,47.088,0,0,0,98.852,53.638h3.053a1.788,1.788,0,1,0,0-3.577m-39.439,60.17a4.262,4.262,0,0,1-8.523,0V84.168a1.788,1.788,0,1,0-3.577,0v26.063a4.262,4.262,0,0,1-8.523,0V77.991H62.466Zm1.785-58.24a1.785,1.785,0,0,0-1.785,1.787V74.416H41.843V53.779a1.788,1.788,0,0,0-3.577,0v21.3a2.965,2.965,0,0,1-5.929,0V52.129a7.722,7.722,0,0,1,7.717-7.712H50.487a1.759,1.759,0,0,0,3.331,0H64.251a7.727,7.727,0,0,1,7.722,7.712V75.08a2.967,2.967,0,0,1-5.934,0v-21.3a1.789,1.789,0,0,0-1.787-1.787m1.787,40.946V80.877a6.492,6.492,0,0,0,9.506-5.8V52.129A11.3,11.3,0,0,0,64.251,40.843h-24.2A11.3,11.3,0,0,0,28.76,52.129V75.08A6.546,6.546,0,0,0,35.3,81.619a6.476,6.476,0,0,0,2.967-.742V93.09A43.478,43.478,0,0,1,8.417,53.638h2.9a1.788,1.788,0,0,0,0-3.577H8.43A43.494,43.494,0,0,1,50.381,8.42v2.906a1.788,1.788,0,0,0,3.577,0V8.452a43.491,43.491,0,0,1,41.3,41.61H92.369a1.788,1.788,0,0,0,0,3.577H95.28a43.546,43.546,0,0,1-29.242,39.3" fill="#de413a"/>
      </g>
    </g>
  </g>
</svg>
